HIERARCHY
ROOT hip
{
  OFFSET 0 0 0
  CHANNELS 6 Xposition Yposition Zposition Zrotation Yrotation Xrotation
  JOINT abdomen
  {
    OFFSET 0 20.6881 -0.73152
    CHANNELS 3 Zrotation Xrotation Yrotation
    JOINT chest
    {
      OFFSET 0 11.7043 -0.48768
      CHANNELS 3 Zrotation Xrotation Yrotation
      JOINT neck
      {
        OFFSET 0 22.1894 -2.19456
        CHANNELS 3 Zrotation Xrotation Yrotation
        JOINT head
        {
          OFFSET -0.24384 7.07133 1.2192
          CHANNELS 3 Zrotation Xrotation Yrotation
          JOINT leftEye
          {
            OFFSET 4.14528 8.04674 8.04672
            CHANNELS 3 Zrotation Xrotation Yrotation
            End Site
            {
              OFFSET 1 0 0
            }
          }
          JOINT rightEye
          {
            OFFSET -3.6576 8.04674 8.04672
            CHANNELS 3 Zrotation Xrotation Yrotation
            End Site
            {
              OFFSET 1 0 0
            }
          }
        }
      }
      JOINT rCollar
      {
        OFFSET -2.68224 19.2634 -4.8768
        CHANNELS 3 Zrotation Xrotation Yrotation
        JOINT rShldr
        {
          OFFSET -8.77824 -1.95073 1.46304
          CHANNELS 3 Zrotation Xrotation Yrotation
          JOINT rForeArm
          {
            OFFSET -28.1742 -1.7115 0.48768
            CHANNELS 3 Zrotation Xrotation Yrotation
            JOINT rHand
            {
              OFFSET -22.5879 0.773209 7.07136
              CHANNELS 3 Zrotation Xrotation Yrotation
              JOINT rThumb1
              {
                OFFSET -1.2192 -0.487915 3.41376
                CHANNELS 3 Zrotation Xrotation Yrotation
                JOINT rThumb2
                {
                  OFFSET -3.37035 -0.52449 3.41376
                  CHANNELS 3 Zrotation Xrotation Yrotation
                  End Site
                  {
                    OFFSET -1.78271 -1.18214 1.43049
                  }
                }
              }
              JOINT rIndex1
              {
                OFFSET -7.75947 0.938293 5.60832
                CHANNELS 3 Zrotation Xrotation Yrotation
                JOINT rIndex2
                {
                  OFFSET -2.54057 -0.884171 1.56538
                  CHANNELS 3 Zrotation Xrotation Yrotation
                  End Site
                  {
                    OFFSET -1.62519 -0.234802 1.16502
                  }
                }
              }
              JOINT rMid1
              {
                OFFSET -8.24714 1.18213 3.41376
                CHANNELS 3 Zrotation Xrotation Yrotation
                JOINT rMid2
                {
                  OFFSET -3.10165 -0.590103 1.0647
                  CHANNELS 3 Zrotation Xrotation Yrotation
                  End Site
                  {
                    OFFSET -2.48547 -0.328903 0.83742
                  }
                }
              }
              JOINT rRing1
              {
                OFFSET -8.82822 0.546677 1.51678
                CHANNELS 3 Zrotation Xrotation Yrotation
                JOINT rRing2
                {
                  OFFSET -2.60934 -0.819778 -0.0198488
                  CHANNELS 3 Zrotation Xrotation Yrotation
                  End Site
                  {
                    OFFSET -2.33842 -0.294052 0.168128
                  }
                }
              }
              JOINT rPinky1
              {
                OFFSET -8.27202 -0.0477905 -0.4584
                CHANNELS 3 Zrotation Xrotation Yrotation
                JOINT rPinky2
                {
                  OFFSET -1.82734 -0.647385 -0.700984
                  CHANNELS 3 Zrotation Xrotation Yrotation
                  End Site
                  {
                    OFFSET -1.69225 -0.51767 -0.607171
                  }
                }
              }
            }
          }
        }
      }
      JOINT lCollar
      {
        OFFSET 2.68224 19.2634 -4.8768
        CHANNELS 3 Zrotation Xrotation Yrotation
        JOINT lShldr
        {
          OFFSET 8.77824 -1.95073 1.46304
          CHANNELS 3 Zrotation Xrotation Yrotation
          JOINT lForeArm
          {
            OFFSET 28.1742 -1.7115 0.48768
            CHANNELS 3 Zrotation Xrotation Yrotation
            JOINT lHand
            {
              OFFSET 22.5879 0.773209 7.07136
              CHANNELS 3 Zrotation Xrotation Yrotation
              JOINT lThumb1
              {
                OFFSET 1.2192 -0.487915 3.41376
                CHANNELS 3 Zrotation Xrotation Yrotation
                JOINT lThumb2
                {
                  OFFSET 3.37035 -0.52449 3.41376
                  CHANNELS 3 Zrotation Xrotation Yrotation
                  End Site
                  {
                    OFFSET 1.78271 -1.18214 1.43049
                  }
                }
              }
              JOINT lIndex1
              {
                OFFSET 7.75947 0.938293 5.60832
                CHANNELS 3 Zrotation Xrotation Yrotation
                JOINT lIndex2
                {
                  OFFSET 2.54057 -0.884171 1.56538
                  CHANNELS 3 Zrotation Xrotation Yrotation
                  End Site
                  {
                    OFFSET 1.62519 -0.234802 1.16502
                  }
                }
              }
              JOINT lMid1
              {
                OFFSET 8.24714 1.18213 3.41376
                CHANNELS 3 Zrotation Xrotation Yrotation
                JOINT lMid2
                {
                  OFFSET 3.10165 -0.590103 1.0647
                  CHANNELS 3 Zrotation Xrotation Yrotation
                  End Site
                  {
                    OFFSET 2.48547 -0.328903 0.83742
                  }
                }
              }
              JOINT lRing1
              {
                OFFSET 8.82822 0.546677 1.51678
                CHANNELS 3 Zrotation Xrotation Yrotation
                JOINT lRing2
                {
                  OFFSET 2.60934 -0.819778 -0.0198488
                  CHANNELS 3 Zrotation Xrotation Yrotation
                  End Site
                  {
                    OFFSET 2.33842 -0.294052 0.168128
                  }
                }
              }
              JOINT lPinky1
              {
                OFFSET 8.27202 -0.0477905 -0.4584
                CHANNELS 3 Zrotation Xrotation Yrotation
                JOINT lPinky2
                {
                  OFFSET 1.82734 -0.647385 -0.700984
                  CHANNELS 3 Zrotation Xrotation Yrotation
                  End Site
                  {
                    OFFSET 1.69225 -0.51767 -0.607171
                  }
                }
              }
            }
          }
        }
      }
    }
  }
  JOINT rButtock
  {
    OFFSET -8.77824 4.35084 1.2192
    CHANNELS 3 Zrotation Xrotation Yrotation
    JOINT rThigh
    {
      OFFSET 0 -1.70687 -2.19456
      CHANNELS 3 Zrotation Xrotation Yrotation
      JOINT rShin
      {
        OFFSET 0 -36.8199 0.73152
        CHANNELS 3 Zrotation Xrotation Yrotation
        JOINT rFoot
        {
          OFFSET 0.73152 -45.1104 -5.12064
          CHANNELS 3 Zrotation Xrotation Yrotation
          End Site
          {
            OFFSET -1.1221 -3.69964 12.103
          }
        }
      }
    }
  }
  JOINT lButtock
  {
    OFFSET 8.77824 4.35084 1.2192
    CHANNELS 3 Zrotation Xrotation Yrotation
    JOINT lThigh
    {
      OFFSET 0 -1.70687 -2.19456
      CHANNELS 3 Zrotation Xrotation Yrotation
      JOINT lShin
      {
        OFFSET 0 -36.8199 0.73152
        CHANNELS 3 Zrotation Xrotation Yrotation
        JOINT lFoot
        {
          OFFSET -0.73152 -45.1104 -5.12064
          CHANNELS 3 Zrotation Xrotation Yrotation
          End Site
          {
            OFFSET 1.1221 -3.69964 12.103
          }
        }
      }
    }
  }
}
MOTION
Frames:	9
Frame Time:	0.00833333
-165.776 85.4571 8.55385 0.0 0.0 0.0 1.92987 -0.00172186 0.0523822 0.532078 0.00507092 0.0921219 -1.63352e-14 7.95139e-16 -1.49088e-16 -4.91526e-14 9.54166e-15 -4.30182e-16 -0.0 0.0 0.0 -0.0 0.0 0.0 -8.15165e-15 1.94126e-17 1.49089e-16 -1.72627e-13 1.36664e-16 -1.59028e-15 -2.97884e-12 9.02681e-13 0.0 -3.40902e-11 -8.29603e-13 -3.37139e-13 -8.04226e-11 1.61197e-13 -6.96541e-13 -1.38904e-10 2.73528e-13 -1.211e-12 -8.04187e-11 1.60618e-13 -7.09264e-13 7.73091 5.47488 0.417314 -8.04229e-11 1.60618e-13 -6.99722e-13 2.90554 0.965183 0.102902 -8.04205e-11 1.61115e-13 -7.00517e-13 10.2786 0.731801 0.0259123 -8.04289e-11 1.61811e-13 -6.87e-13 2.22167 -0.733487 -0.20892 -8.44739e-15 1.61124e-17 -2.48481e-16 -1.74552e-13 2.42269e-16 -2.78299e-15 -2.97332e-12 -8.81212e-13 -2.54444e-14 -3.40831e-11 9.52005e-13 -2.8625e-13 -8.0388e-11 1.52196e-13 -6.96541e-13 -1.38811e-10 2.63986e-13 -1.19668e-12 -8.03933e-11 1.53462e-13 -6.83819e-13 -7.73091 5.47488 -0.417314 -8.03883e-11 1.52269e-13 -6.96541e-13 -2.90554 0.965183 -0.102902 -8.03914e-11 1.5217e-13 -6.96541e-13 -10.2786 0.731801 -0.0259123 -8.03802e-11 1.53462e-13 -7.06083e-13 -2.22167 -0.733487 0.20892 -2.03217e-16 0.0 -3.88251e-19 1.95954 -7.26115 -0.19202 0.00412028 7.58526 0.107059 -0.52135 -0.33066 0.0523352 2.03217e-16 0.0 3.88251e-19 0.976739 -1.92613 0.000868816 0.00898671 -2.0786 0.0740588 0.487809 3.99809 -0.136728
-159.743 85.1999 -0.119779 33.1915 86.0254 35.686 0.518959 1.5412 0.499671 1.09753 -0.413862 0.236887 1.19228 -1.34912 0.66722 -0.890691 1.48562 1.04474 -0.0 0.0 0.0 -0.0 0.0 0.0 1.46813e-13 -3.98039e-13 -1.87179e-13 22.0333 8.61877 0.598868 -4.52596 -2.12126 6.99748 0.00444996 1.4813 0.207933 -3.55995e-10 3.22374e-11 4.09783e-10 -6.12731e-10 5.55965e-11 7.10391e-10 -3.5599e-10 3.22374e-11 4.0977e-10 7.73091 5.47488 0.417314 -3.55994e-10 3.22372e-11 4.09781e-10 2.90554 0.965183 0.102902 -3.55991e-10 3.22375e-11 4.0978e-10 10.2786 0.731801 0.0259123 -3.56e-10 3.22389e-11 4.09792e-10 2.22167 -0.733487 -0.20892 1.466e-13 -3.98042e-13 -1.87537e-13 -21.5319 12.1656 -2.06064 3.75588 -1.62367 -5.95324 -0.0210021 3.21803 -0.449698 5.4888e-10 -2.69097e-10 -3.1302e-10 9.45713e-10 -4.64899e-10 -5.47176e-10 5.48872e-10 -2.69095e-10 -3.13008e-10 -7.73091 5.47488 -0.417314 5.4888e-10 -2.69097e-10 -3.13021e-10 -2.90554 0.965183 -0.102902 5.48876e-10 -2.69097e-10 -3.1302e-10 -10.2786 0.731801 -0.0259123 5.48889e-10 -2.69096e-10 -3.13029e-10 -2.22167 -0.733487 0.20892 -2.03217e-16 0.0 -3.88251e-19 -0.847448 -4.81199 -1.31425 0.00295397 8.19311 0.124511 -0.548152 -4.25433 -1.0963 2.03217e-16 0.0 3.88251e-19 1.76216 0.855875 -0.0425156 0.00615597 -2.49124 0.0571595 0.574216 0.929034 2.37007
-159.77 85.184 -0.103968 32.1414 86.1433 34.7493 -0.998981 3.17074 0.972907 1.69781 -0.856526 0.3897 2.49234 -2.77119 1.3743 -1.89978 3.05066 2.15106 -0.0 0.0 0.0 -0.0 0.0 0.0 3.17583e-13 -7.6748e-13 -3.9456e-13 45.1233 17.7143 1.27704 -8.75161 -4.25822 14.4253 -0.00257044 3.05489 0.429293 -6.76947e-10 7.06091e-11 8.88786e-10 -1.1646e-09 1.21794e-10 1.54075e-09 -6.76942e-10 7.06099e-11 8.88772e-10 7.73091 5.47488 0.417314 -6.76945e-10 7.06094e-11 8.88784e-10 2.90554 0.965183 0.102902 -6.76943e-10 7.06094e-11 8.88783e-10 10.2786 0.731801 0.0259123 -6.76952e-10 7.06115e-11 8.88793e-10 2.22167 -0.733487 -0.20892 3.17456e-13 -7.67483e-13 -3.94876e-13 -43.2556 24.9519 -4.56934 7.35799 -3.27926 -12.2562 0.0121321 6.63395 -0.931894 1.2826e-09 -5.84831e-10 -6.68456e-10 2.21035e-09 -1.01039e-09 -1.16868e-09 1.28259e-09 -5.8483e-10 -6.68446e-10 -7.73091 5.47488 -0.417314 1.2826e-09 -5.84832e-10 -6.6846e-10 -2.90554 0.965183 -0.102902 1.2826e-09 -5.84832e-10 -6.68458e-10 -10.2786 0.731801 -0.0259123 1.28261e-09 -5.84831e-10 -6.68466e-10 -2.22167 -0.733487 0.20892 -2.03217e-16 0.0 -3.88251e-19 -3.71313 -2.22492 -2.49997 0.00135033 8.836 0.143027 -0.748356 -8.39492 -2.32367 2.03217e-16 0.0 3.88251e-19 2.59284 3.79693 -0.104112 0.00282329 -2.93086 0.0393107 0.958853 -2.30725 5.03853
-159.769 85.1752 -0.127535 33.2588 86.1654 35.8536 -2.37533 4.62585 1.39826 2.23479 -1.25168 0.526525 3.67128 -4.04515 2.00611 -2.83494 4.45093 3.14267 -0.0 0.0 0.0 -0.0 0.0 0.0 4.56743e-13 -1.19416e-12 -5.61836e-13 65.5084 25.8443 1.9738 -12.055 -5.98491 21.0984 -0.018987 4.44367 0.62547 -9.07139e-10 9.63899e-11 1.23074e-09 -1.56038e-09 1.66242e-10 2.13359e-09 -9.07133e-10 9.63911e-11 1.23073e-09 7.73091 5.47488 0.417314 -9.07135e-10 9.63905e-11 1.23074e-09 2.90554 0.965183 0.102902 -9.07133e-10 9.63902e-11 1.23074e-09 10.2786 0.731801 0.0259123 -9.07143e-10 9.6393e-11 1.23075e-09 2.22167 -0.733487 -0.20892 4.56694e-13 -1.19416e-12 -5.62115e-13 -61.4414 36.2842 -7.50427 10.2708 -4.66107 -17.9138 0.0903755 9.6517 -1.36631 1.80742e-09 -8.07594e-10 -9.37666e-10 3.11476e-09 -1.39522e-09 -1.63913e-09 1.8074e-09 -8.07593e-10 -9.37656e-10 -7.73091 5.47488 -0.417314 1.80742e-09 -8.07596e-10 -9.37671e-10 -2.90554 0.965183 -0.102902 1.80741e-09 -8.07596e-10 -9.37668e-10 -10.2786 0.731801 -0.0259123 1.80743e-09 -8.07595e-10 -9.37676e-10 -2.22167 -0.733487 0.20892 -2.03217e-16 0.0 -3.88251e-19 -6.17404 0.0824587 -3.54788 -0.00050521 9.40879 0.159622 -1.0825 -12.0826 -3.46128 2.03217e-16 0.0 3.88251e-19 3.34571 6.41987 -0.130085 -0.000236827 -3.31652 0.0233352 1.55225 -5.16344 7.4123
-159.759 85.1906 -0.137452 34.2401 86.194 36.8026 -3.34679 5.64597 1.70015 2.60903 -1.52812 0.623283 4.48098 -4.95091 2.44553 -3.47098 5.44489 3.83956 -0.0 0.0 0.0 -0.0 0.0 0.0 5.16878e-13 -1.76392e-12 -6.28855e-13 79.5599 31.5715 2.55286 -14.1139 -7.0468 25.7837 -0.0355073 5.37066 0.757038 -9.10425e-10 9.06935e-11 1.23009e-09 -1.56599e-09 1.56321e-10 2.13266e-09 -9.10419e-10 9.06943e-11 1.23007e-09 7.73091 5.47488 0.417314 -9.10421e-10 9.06936e-11 1.23009e-09 2.90554 0.965183 0.102902 -9.10419e-10 9.06931e-11 1.23009e-09 10.2786 0.731801 0.0259123 -9.1043e-10 9.06967e-11 1.23009e-09 2.22167 -0.733487 -0.20892 5.16886e-13 -1.76393e-12 -6.29104e-13 -73.1148 44.1744 -10.3129 12.1533 -5.5567 -21.9069 0.170191 11.6764 -1.66435 1.80997e-09 -7.97931e-10 -9.91309e-10 3.11859e-09 -1.3784e-09 -1.73195e-09 1.80996e-09 -7.9793e-10 -9.91299e-10 -7.73091 5.47488 -0.417314 1.80997e-09 -7.97933e-10 -9.91315e-10 -2.90554 0.965183 -0.102902 1.80997e-09 -7.97934e-10 -9.91311e-10 -10.2786 0.731801 -0.0259123 1.80998e-09 -7.97933e-10 -9.91318e-10 -2.22167 -0.733487 0.20892 -2.03217e-16 0.0 -3.88251e-19 -7.82698 1.69617 -4.25288 -0.00219307 9.80634 0.171258 -1.41335 -14.6555 -4.31145 2.03217e-16 0.0 3.88251e-19 3.88779 8.24753 -0.0653606 -0.00209122 -3.56728 0.0120638 2.09089 -7.12052 9.00708
-159.76 85.1975 -0.149328 34.9535 86.1948 37.4715 -3.7239 6.05525 1.83081 2.75024 -1.63636 0.665154 4.73642 -5.34771 2.61258 -3.62276 5.87613 4.1198 -0.0 0.0 0.0 -0.0 0.0 0.0 4.52223e-13 -2.20278e-12 -5.42331e-13 84.9758 33.9689 2.83698 -14.8691 -7.42493 27.6265 -0.0415672 5.6322 0.794301 -4.51886e-10 2.9599e-11 5.96731e-10 -7.77117e-10 5.07559e-11 1.03503e-09 -4.51879e-10 2.95978e-11 5.96721e-10 7.73091 5.47488 0.417314 -4.51881e-10 2.95973e-11 5.96732e-10 2.90554 0.965183 0.102902 -4.51879e-10 2.95967e-11 5.96732e-10 10.2786 0.731801 0.0259123 -4.51891e-10 2.96012e-11 5.96739e-10 2.22167 -0.733487 -0.20892 4.52264e-13 -2.20278e-12 -5.42558e-13 -77.2908 47.4472 -11.7537 12.8894 -5.91084 -23.5451 0.201669 12.3051 -1.75849 8.59763e-10 -3.50674e-10 -6.15908e-10 1.47979e-09 -6.05346e-10 -1.07407e-09 8.59746e-10 -3.50673e-10 -6.15897e-10 -7.73091 5.47488 -0.417314 8.59762e-10 -3.50676e-10 -6.15914e-10 -2.90554 0.965183 -0.102902 8.59755e-10 -3.50677e-10 -6.15908e-10 -10.2786 0.731801 -0.0259123 8.59771e-10 -3.50676e-10 -6.15915e-10 -2.22167 -0.733487 0.20892 -2.03217e-16 0.0 -3.88251e-19 -8.43327 2.34387 -4.46935 -0.00328979 9.95948 0.175882 -1.58352 -15.6806 -4.71903 2.03217e-16 0.0 3.88251e-19 4.13584 8.96094 0.156607 -0.00194233 -3.62582 0.00741965 2.2913 -7.85314 9.44743
-159.751 85.1998 -0.155234 34.9991 86.1456 37.4594 -3.67122 6.02856 1.83817 2.7247 -1.62456 0.667742 4.58922 -5.38115 2.5842 -3.41698 5.90651 4.10067 -0.0 0.0 0.0 -0.0 0.0 0.0 2.99108e-13 -2.5639e-12 -3.46761e-13 84.2953 33.9897 2.86155 -14.7883 -7.38541 27.4251 -0.0381828 5.41934 0.764067 3.29664e-10 -7.05262e-11 -4.81263e-10 5.6741e-10 -1.22196e-10 -8.33318e-10 3.29672e-10 -7.05303e-11 -4.81269e-10 7.73091 5.47488 0.417314 3.29668e-10 -7.05304e-11 -4.81262e-10 2.90554 0.965183 0.102902 3.29671e-10 -7.05312e-11 -4.81261e-10 10.2786 0.731801 0.0259123 3.29658e-10 -7.05257e-11 -4.81252e-10 2.22167 -0.733487 -0.20892 2.99161e-13 -2.5639e-12 -3.46972e-13 -76.6976 47.4953 -11.7265 12.8733 -5.91861 -23.4925 0.18826 11.9373 -1.70405 -7.60442e-10 4.03808e-10 5.9893e-11 -1.31413e-09 6.98627e-10 1.09456e-10 -7.6046e-10 4.0381e-10 5.99074e-11 -7.73091 5.47488 -0.417314 -7.60444e-10 4.03806e-10 5.98896e-11 -2.90554 0.965183 -0.102902 -7.60451e-10 4.03805e-10 5.9896e-11 -10.2786 0.731801 -0.0259123 -7.60436e-10 4.03806e-10 5.98908e-11 -2.22167 -0.733487 0.20892 -2.03217e-16 0.0 -3.88251e-19 -8.31222 2.30309 -4.3349 -0.00388157 9.93798 0.175479 -1.59842 -15.6041 -4.79613 2.03217e-16 0.0 3.88251e-19 4.1764 8.87827 0.48913 -0.000316691 -3.54721 0.00751078 2.19592 -7.72186 9.05295
-159.755 85.1989 -0.146197 34.3055 86.1444 36.7393 -3.45396 5.83172 1.78941 2.63757 -1.56795 0.652577 4.29307 -5.26116 2.47777 -3.09086 5.77308 3.95931 -0.0 0.0 0.0 -0.0 0.0 0.0 1.33255e-13 -3.42391e-12 -1.28663e-13 81.1921 33.0199 2.76811 -14.3738 -7.17941 26.4077 -0.0320032 5.04733 0.711253 1.00976e-09 -1.68135e-10 -1.49225e-09 1.73707e-09 -2.90863e-10 -2.5853e-09 1.00977e-09 -1.68142e-10 -1.49225e-09 7.73091 5.47488 0.417314 1.00977e-09 -1.68142e-10 -1.49225e-09 2.90554 0.965183 0.102902 1.00977e-09 -1.68143e-10 -1.49225e-09 10.2786 0.731801 0.0259123 1.00976e-09 -1.68137e-10 -1.49224e-09 2.22167 -0.733487 -0.20892 1.33309e-13 -3.42391e-12 -1.28865e-13 -74.235 46.2305 -11.0803 12.5538 -5.78565 -22.7529 0.159293 11.1828 -1.59256 -2.29408e-09 1.10166e-09 6.52253e-10 -3.95919e-09 1.90474e-09 1.14803e-09 -2.2941e-09 1.10167e-09 6.52271e-10 -7.73091 5.47488 -0.417314 -2.29408e-09 1.10166e-09 6.52252e-10 -2.90554 0.965183 -0.102902 -2.29409e-09 1.10166e-09 6.52259e-10 -10.2786 0.731801 -0.0259123 -2.29408e-09 1.10166e-09 6.52255e-10 -2.22167 -0.733487 0.20892 -2.03217e-16 0.0 -3.88251e-19 -7.90781 1.98692 -4.06524 -0.00427299 9.84517 0.17306 -1.54607 -15.0878 -4.73232 2.03217e-16 0.0 3.88251e-19 4.12808 8.47828 0.818325 0.00176071 -3.41913 0.00944836 1.99829 -7.25214 8.36507
-159.769 85.1992 -0.139876 34.0966 86.179 36.5395 -3.33807 5.73046 1.75178 2.5941 -1.54173 0.641191 4.10243 -5.19762 2.41082 -2.88321 5.71275 3.87312 -0.0 0.0 0.0 -0.0 0.0 0.0 3.03894e-14 -5.35943e-12 2.54444e-14 79.3275 32.4447 2.70722 -14.1237 -7.05469 25.8034 -0.0287144 4.8314 0.68064 1.16395e-09 -2.21682e-10 -1.92459e-09 2.00134e-09 -3.83572e-10 -3.33382e-09 1.16396e-09 -2.2169e-10 -1.92459e-09 7.73091 5.47488 0.417314 1.16395e-09 -2.2169e-10 -1.92459e-09 2.90554 0.965183 0.102902 1.16396e-09 -2.21691e-10 -1.92459e-09 10.2786 0.731801 0.0259123 1.16394e-09 -2.21685e-10 -1.92458e-09 2.22167 -0.733487 -0.20892 3.04407e-14 -5.35943e-12 2.52457e-14 -72.7157 45.5547 -10.7409 12.3715 -5.71264 -22.3314 0.141197 10.6513 -1.5146 -2.98459e-09 1.37904e-09 7.77331e-10 -5.15136e-09 2.38419e-09 1.37106e-09 -2.98461e-09 1.37904e-09 7.7735e-10 -7.73091 5.47488 -0.417314 -2.98459e-09 1.37904e-09 7.77331e-10 -2.90554 0.965183 -0.102902 -2.9846e-09 1.37904e-09 7.77338e-10 -10.2786 0.731801 -0.0259123 -2.98458e-09 1.37904e-09 7.77334e-10 -2.22167 -0.733487 0.20892 -2.03217e-16 0.0 -3.88251e-19 -7.66554 1.80865 -3.87615 -0.00477241 9.78433 0.171637 -1.52205 -14.7922 -4.71949 2.03217e-16 0.0 3.88251e-19 4.09817 8.24006 1.03203 0.00327352 -3.32923 0.0103441 1.88067 -6.97269 7.9237
